<svg xmlns="http://www.w3.org/2000/svg" fill="none" viewBox="0 0 80 45" height="45" width="80">
<path fill="#1C1B1B" d="M59.5233 39.041C60.7167 39.041 61.2621 40.2458 61.2621 41.3653C61.2621 42.5453 60.7215 43.7376 59.5137 43.7376C58.306 43.7376 57.7673 42.5376 57.7673 41.4229C57.7673 40.2401 58.3108 39.0419 59.5243 39.0419M59.553 37.7805C57.6466 37.7805 56.3162 39.2863 56.3162 41.443C56.3162 43.5996 57.6121 45.0019 59.4668 45.0019C61.0828 45.0019 62.7123 43.8661 62.7123 41.3289C62.7123 39.2068 61.4423 37.7805 59.5521 37.7805"></path>
<path fill="#1C1B1B" d="M21.5252 37.8917L20.3223 41.1909C20.1632 41.6423 20.0299 42.043 19.9149 42.4101C19.7989 42.021 19.6724 41.6203 19.5306 41.1909L18.3756 37.8917H16.8506L16.3675 44.8955H17.7362L17.9232 41.8686C17.9433 41.5254 17.9615 41.1775 17.9787 40.8343C18.0525 41.0768 18.135 41.3308 18.2241 41.603L19.3312 44.8562H20.3645L21.5578 41.5503C21.6585 41.2714 21.7591 40.9848 21.8617 40.679C21.8789 41.0663 21.899 41.4487 21.9182 41.7995L22.085 44.8955H23.4825L23.0502 37.8917H21.5252Z"></path>
<path fill="#1C1B1B" d="M28.761 39.041C29.9543 39.041 30.4997 40.2458 30.4997 41.3653C30.4997 42.5453 29.9582 43.7376 28.7514 43.7376C27.5447 43.7376 27.005 42.5376 27.005 41.4229C27.005 40.2401 27.5485 39.0419 28.762 39.0419M28.7907 37.7805C26.8842 37.7805 25.5538 39.2863 25.5538 41.443C25.5538 43.5996 26.8497 45.0019 28.7044 45.0019C30.3195 45.0019 31.95 43.8661 31.95 41.3289C31.95 39.2068 30.6799 37.7805 28.7898 37.7805"></path>
<path fill="#1C1B1B" d="M38.2205 40.8707C38.2205 41.396 38.2252 41.8197 38.2377 42.2012C38.0767 41.9126 37.8965 41.6078 37.6914 41.2752L35.5941 37.9195L35.5759 37.8917H34.2187V44.8955H35.575V41.859C35.575 41.2685 35.5731 40.8305 35.5654 40.4519C35.7446 40.7711 35.9488 41.1161 36.1894 41.5014L38.2943 44.8955H39.5767V37.8917H38.2205V40.8707Z"></path>
<path fill="#1C1B1B" d="M44.6587 39.9975C44.677 40.0589 44.699 40.1212 44.7191 40.1864L45.2185 41.6414H44.1086L44.6012 40.1749C44.6214 40.1154 44.6396 40.056 44.6578 39.9975M45.3834 37.8907H43.983L41.6423 44.8179L41.6155 44.8955H43.081L43.7424 42.8769H45.5779L46.2451 44.8553L46.2575 44.8955H47.7518L45.3949 37.932L45.3824 37.8907H45.3834Z"></path>
<path fill="#1C1B1B" d="M52.8962 39.0688C53.3247 39.0688 53.7416 39.1569 54.0407 39.3055L54.3464 39.4598L54.7279 38.2195L54.5142 38.1064C54.3704 38.0316 53.8298 37.7872 52.8684 37.7872C50.7415 37.7872 49.2558 39.293 49.2558 41.4506C49.2558 43.6082 50.5987 45 52.6796 45C53.5403 45 54.1806 44.8256 54.4931 44.6636L54.6963 44.5562L54.3972 43.313L54.0713 43.4712C53.7723 43.6169 53.3045 43.707 52.8483 43.707C51.5073 43.707 50.706 42.8539 50.706 41.4209C50.706 39.988 51.5246 39.0688 52.8962 39.0688Z"></path>
<path fill="#1C1B1B" d="M17.9107 21.9393V15.6141L16.6359 17.1458C16.3378 17.5052 15.8365 18.0813 15.6553 18.2366C14.9259 18.8682 13.3856 19.9647 11.2864 20.2111C9.36462 20.4392 7.9259 19.5526 7.05557 18.7724C5.38585 17.2752 4.34971 14.8233 4.34971 12.3743C4.34971 8.05625 7.54729 4.54332 11.4772 4.54332C15.407 4.54332 18.6027 8.06105 18.6037 12.3839V24.2809H22.9543V12.3734C22.9553 5.55072 17.8062 0 11.4772 0C5.14814 0 0 5.55072 0 12.3734C0 19.196 4.93727 24.7448 11.2395 24.7448C13.9453 24.7448 15.57 24.0911 17.6758 22.1549L17.9107 21.9383V21.9393Z"></path>
<path fill="#1C1B1B" d="M36.983 0C30.655 0 25.5059 5.55551 25.5059 12.383V34.2072H29.8575V12.3724C29.8575 8.05434 33.0541 4.54237 36.983 4.54237C40.9119 4.54237 44.1105 8.05434 44.1105 12.3724C44.1105 16.6905 40.9129 20.2053 36.983 20.2053C34.6816 20.2053 33.3349 18.9832 33.0857 18.7388C32.5998 18.2576 31.9844 17.4257 31.9777 17.417L30.6789 15.6572V21.9393L30.9138 22.1559C32.9007 23.9838 34.1832 24.7467 36.983 24.7467C43.312 24.7467 48.4602 19.196 48.4602 12.3734C48.4602 5.55071 43.312 0 36.983 0Z"></path>
<path fill="#1C1B1B" d="M70.6775 0C68.3109 0 66.0536 1.02369 64.4711 2.77584C62.8896 1.02464 60.6294 0 58.2638 0C53.641 0 49.8807 3.79856 49.8807 8.46937V24.1937H54.2324V8.50675C54.2324 6.2648 56.0401 4.44172 58.2638 4.44172C60.4876 4.44172 62.2963 6.27631 62.2963 8.52976V24.1946H66.6469V8.4732C66.6642 6.25043 68.4719 4.44172 70.6775 4.44172C72.3395 4.44172 73.8549 5.49896 74.4463 7.07187C74.6208 7.53674 74.7089 8.02558 74.7089 8.52976V24.1946H79.0606V8.45403C79.0606 3.79281 75.3003 0 70.6775 0Z"></path>
</svg>
