<?xml version="1.0" standalone="no"?>
<!DOCTYPE svg PUBLIC "-//W3C//DTD SVG 20010904//EN"
 "http://www.w3.org/TR/2001/REC-SVG-20010904/DTD/svg10.dtd">
<svg version="1.0" xmlns="http://www.w3.org/2000/svg"
 width="80pt" height="80pt" viewBox="0 0 3760.000000 3760.000000"
 preserveAspectRatio="xMidYMid meet">

<g transform="translate(0.000000,3760.000000) scale(0.100000,-0.100000)"
fill="#d64c5b" stroke="none">
<path d="M18936 25458 c-21 -308 -157 -524 -368 -590 -33 -10 -77 -18 -99 -18
-35 0 -39 -3 -39 -25 0 -23 4 -25 44 -25 55 0 151 -29 209 -63 100 -59 193
-198 232 -347 9 -36 19 -120 22 -187 6 -119 6 -123 28 -123 22 0 23 4 28 128
3 70 13 154 22 187 40 146 134 284 232 342 58 34 154 63 209 63 40 0 44 2 44
25 0 22 -4 25 -39 25 -131 0 -287 102 -369 239 -56 95 -102 279 -102 409 0 48
-2 52 -24 52 -22 0 -23 -4 -30 -92z m114 -387 c43 -81 130 -167 210 -210 l63
-34 -63 -31 c-117 -57 -203 -155 -255 -292 -15 -38 -30 -78 -34 -89 -6 -16
-11 -9 -26 35 -25 79 -79 178 -125 231 -43 51 -122 107 -183 131 l-39 14 64
32 c80 39 183 144 226 228 16 33 40 93 53 134 l22 74 27 -79 c14 -44 41 -109
60 -144z"/>
<path d="M17240 24626 c-86 -228 -137 -562 -127 -836 26 -699 386 -1199 1042
-1445 98 -37 388 -115 426 -115 10 0 19 -3 19 -6 0 -25 -156 -256 -259 -383
-42 -52 -84 -103 -93 -115 -17 -21 -17 -21 -65 25 -176 167 -361 277 -626 368
-580 200 -1166 112 -1622 -244 -99 -77 -214 -197 -266 -278 l-41 -62 44 -39
c224 -202 573 -379 879 -445 577 -124 1106 39 1578 485 l103 98 20 -25 c69
-85 143 -190 186 -261 256 -427 412 -992 447 -1620 6 -107 9 -118 26 -118 13
0 19 7 19 23 0 12 5 90 10 172 49 730 280 1392 630 1803 l20 24 102 -97 c470
-444 1002 -607 1577 -483 289 62 619 224 849 418 83 70 83 59 0 172 -67 91
-212 226 -322 300 -445 297 -976 362 -1512 183 -253 -84 -430 -182 -604 -337
-90 -79 -93 -80 -109 -61 -140 172 -192 242 -254 336 -77 116 -101 157 -95
161 2 1 53 13 113 25 152 32 358 101 492 166 474 228 760 598 853 1105 58 311
26 730 -78 1041 l-29 84 -44 3 c-208 17 -661 -186 -964 -431 -103 -83 -266
-251 -337 -347 -206 -280 -299 -574 -285 -900 10 -210 61 -411 158 -619 22
-46 37 -86 35 -89 -3 -2 -51 -11 -108 -18 -83 -11 -125 -12 -215 -3 -61 7
-117 15 -123 19 -7 4 5 39 34 101 55 117 99 248 128 382 30 138 32 418 5 547
-60 279 -194 523 -414 750 -189 196 -365 325 -613 449 -201 100 -403 161 -531
161 -43 0 -51 -3 -59 -24z m151 -31 c269 -47 612 -225 889 -461 453 -386 640
-898 518 -1419 -41 -176 -151 -445 -183 -445 -38 0 -249 54 -372 95 -581 194
-938 581 -1054 1140 -26 129 -37 454 -20 606 23 199 98 499 125 499 7 0 51 -7
97 -15z m3174 -70 c36 -116 71 -288 86 -414 17 -156 7 -489 -20 -614 -103
-473 -382 -829 -815 -1037 -160 -77 -419 -159 -584 -185 l-43 -7 -43 94 c-238
509 -208 1006 86 1430 203 293 534 556 888 706 138 59 300 104 402 111 13 1
23 -19 43 -84z m-1790 -2325 c111 -14 183 -13 301 3 l91 13 59 -98 c64 -108
214 -313 289 -395 l47 -53 -39 -44 c-214 -243 -409 -657 -518 -1101 -34 -139
-85 -414 -85 -461 0 -52 -18 -20 -24 44 -20 190 -111 566 -190 779 -112 304
-279 602 -419 750 l-30 32 60 68 c106 120 238 306 314 440 15 28 29 41 39 38
8 -2 56 -9 105 -15z m-1487 -55 c336 -70 678 -240 862 -430 l45 -46 -100 -98
c-281 -274 -602 -442 -950 -496 -147 -23 -415 -16 -558 15 -205 44 -438 137
-617 247 -81 50 -249 173 -268 196 -28 34 196 269 361 377 214 143 462 231
737 264 19 2 109 3 200 0 127 -2 194 -9 288 -29z m3867 10 c271 -50 563 -190
761 -367 77 -68 169 -170 197 -217 l18 -30 -78 -62 c-235 -187 -529 -326 -825
-391 -88 -19 -134 -22 -318 -23 -190 0 -227 3 -319 23 -328 74 -654 261 -906
522 l-60 62 80 75 c223 209 575 366 942 418 124 18 384 13 508 -10z"/>
<path d="M16325 23285 c-109 -38 -155 -174 -91 -267 39 -58 70 -73 150 -73 65
0 77 3 110 29 45 34 68 84 68 147 0 79 -52 147 -130 169 -47 13 -58 12 -107
-5z"/>
<path d="M21438 23290 c-116 -35 -164 -175 -96 -278 33 -48 81 -72 148 -72 61
0 96 16 138 64 83 95 32 253 -91 285 -52 12 -61 13 -99 1z"/>
<path d="M21506 18429 c-184 -18 -367 -78 -491 -160 -266 -178 -391 -525 -295
-814 26 -78 108 -211 195 -315 150 -180 416 -407 835 -715 506 -371 705 -565
780 -762 79 -204 -15 -468 -209 -592 -221 -142 -638 -146 -1176 -10 -92 23
-108 36 -220 174 -133 164 -250 354 -323 525 -8 18 -11 -63 -11 -311 l-1 -335
278 -87 c377 -118 582 -158 907 -177 296 -17 596 17 781 89 114 44 254 139
355 242 70 69 96 104 130 175 l44 87 3 136 c6 217 -29 321 -165 490 -135 169
-257 275 -563 486 -568 394 -867 663 -1013 912 -75 130 -127 302 -127 424 0
119 46 234 122 305 98 92 237 133 450 134 237 0 631 -69 703 -125 123 -93 341
-392 410 -560 l22 -55 12 288 c7 158 14 294 15 304 3 12 -17 23 -83 47 -444
158 -983 237 -1365 200z"/>
<path d="M24408 18383 c88 -104 146 -201 587 -997 l436 -786 -3 -728 -3 -727
-29 -60 c-36 -72 -132 -172 -201 -208 l-50 -26 495 0 495 -1 -55 31 c-78 42
-155 122 -193 199 l-32 65 -3 776 -2 777 499 735 c274 404 520 768 546 808 26
41 70 102 96 137 l49 62 -196 0 c-190 0 -196 -1 -201 -21 -10 -35 -78 -171
-118 -234 -21 -33 -176 -271 -343 -530 -168 -258 -330 -510 -360 -559 l-55
-88 -27 43 c-85 137 -652 1122 -703 1222 -22 43 -42 98 -45 122 l-5 45 -314 0
-314 0 49 -57z"/>
<path d="M18577 18376 c64 -47 120 -122 149 -201 18 -48 19 -113 22 -1535 2
-1483 2 -1484 -19 -1547 -27 -82 -94 -173 -161 -217 l-53 -36 420 0 419 0 -45
28 c-91 58 -164 167 -188 282 -9 41 -11 431 -9 1520 l3 1465 32 67 c36 76 98
148 162 190 l45 28 -418 0 -418 0 59 -44z"/>
<path d="M10913 18306 c-127 -56 -260 -115 -295 -130 l-63 -28 53 -18 c67 -24
127 -65 166 -113 l31 -39 3 -1366 c2 -1226 1 -1376 -14 -1457 -24 -136 -77
-223 -178 -291 l-51 -34 550 6 550 6 333 116 333 115 177 125 c215 151 219
155 310 256 203 225 363 546 421 848 79 412 34 782 -140 1133 -198 400 -549
690 -965 795 -157 40 -266 50 -634 55 l-325 4 -3 61 c-2 39 -7 60 -15 59 -7 0
-116 -47 -244 -103z m951 -156 c91 -23 226 -91 317 -160 98 -73 228 -215 309
-336 128 -192 214 -401 267 -651 24 -116 27 -148 27 -348 1 -195 -2 -232 -22
-325 -70 -316 -225 -642 -449 -941 -39 -52 -78 -94 -97 -103 -17 -8 -245 -102
-506 -208 -361 -148 -493 -198 -550 -207 -41 -6 -86 -15 -100 -18 -24 -5 -24
-4 8 26 45 42 58 79 82 225 19 122 20 171 20 1596 l0 1470 308 0 c274 0 317
-2 386 -20z"/>
<path d="M15260 18275 c-244 -129 -253 -135 -210 -135 86 -1 380 -83 380 -106
0 -8 -144 -386 -321 -841 -293 -758 -416 -1062 -716 -1778 -57 -137 -116 -279
-130 -314 -38 -91 -100 -171 -173 -219 l-62 -42 323 0 324 0 -35 21 c-62 38
-110 80 -141 125 l-30 44 39 92 c22 51 95 236 162 411 l123 317 254 0 254 0
435 310 c240 171 439 310 443 310 6 0 582 -1349 616 -1441 9 -24 -61 -107
-128 -150 l-60 -39 408 0 408 0 -59 38 c-71 46 -124 105 -157 175 -13 29 -320
757 -683 1620 -615 1463 -660 1567 -682 1567 -29 0 -195 65 -237 93 -16 11
-43 33 -60 48 l-30 28 -255 -134z m423 -602 c41 -98 104 -250 140 -338 36 -88
120 -288 186 -444 66 -156 119 -287 116 -291 -6 -9 -1275 -633 -1280 -629 -7
7 323 845 525 1334 194 470 226 545 234 545 2 0 38 -80 79 -177z"/>
<path d="M14760 12935 l0 -45 170 0 170 0 0 -317 c0 -287 -2 -322 -19 -358
-24 -53 -47 -72 -103 -84 -79 -18 -160 9 -215 73 l-31 34 -31 -32 -31 -32 29
-35 c48 -57 123 -92 212 -97 93 -5 161 14 208 60 74 72 81 119 81 540 l0 338
-220 0 -220 0 0 -45z"/>
<path d="M15540 12515 l0 -465 330 0 330 0 0 40 0 40 -280 0 -280 0 0 175 0
175 240 0 240 0 0 40 0 40 -240 0 -240 0 0 165 0 165 270 0 270 0 0 45 0 45
-320 0 -320 0 0 -465z"/>
<path d="M16451 12628 c67 -194 138 -402 158 -463 l38 -110 52 0 53 0 129 370
c71 204 131 376 134 384 3 8 8 11 11 8 3 -3 66 -176 139 -384 l133 -378 50 -3
49 -3 37 103 c20 57 91 265 159 463 l124 360 -45 3 c-24 2 -46 1 -48 -1 -2 -2
-63 -176 -135 -388 -73 -211 -135 -388 -139 -392 -4 -4 -51 119 -105 275 -54
156 -116 334 -137 396 l-40 112 -43 0 -42 0 -119 -337 c-64 -186 -127 -365
-139 -397 l-22 -59 -17 44 c-9 24 -69 202 -135 394 l-118 350 -51 3 -52 3 121
-353z"/>
<path d="M17950 12515 l0 -465 335 0 335 0 0 40 0 40 -285 0 -285 0 2 173 3
172 243 3 242 2 0 40 0 40 -245 0 -245 0 0 165 0 165 275 0 275 0 0 45 0 45
-325 0 -325 0 0 -465z"/>
<path d="M18870 12515 l0 -465 315 0 315 0 0 40 0 40 -265 0 -265 0 0 425 0
425 -50 0 -50 0 0 -465z"/>
<path d="M19680 12515 l0 -465 310 0 310 0 0 40 0 40 -260 0 -260 0 0 425 0
425 -50 0 -50 0 0 -465z"/>
<path d="M20490 12515 l0 -465 330 0 330 0 0 40 0 40 -285 0 -285 0 2 173 3
172 243 3 242 2 0 40 0 40 -245 0 -245 0 0 165 0 165 275 0 275 0 0 45 0 45
-320 0 -320 0 0 -465z"/>
<path d="M21410 12516 l0 -466 45 0 45 0 0 145 0 145 149 0 c82 0 156 3 164 6
11 4 47 -39 124 -145 l108 -151 53 0 c40 0 51 3 46 13 -4 6 -54 76 -112 155
-57 79 -103 145 -101 146 2 2 22 13 44 24 22 11 57 37 77 57 129 129 107 366
-44 467 -77 52 -123 60 -370 66 l-228 4 0 -466z m471 358 c215 -64 211 -371
-6 -434 -22 -6 -115 -14 -207 -17 l-168 -6 0 237 0 236 163 0 c121 0 177 -4
218 -16z"/>
<path d="M22278 12903 c27 -43 115 -185 195 -315 l147 -236 0 -151 0 -151 45
0 45 0 0 146 0 147 193 310 c105 171 194 314 196 319 1 5 -21 8 -50 6 l-53 -3
-133 -215 c-74 -118 -148 -237 -164 -264 l-30 -49 -166 267 -166 266 -53 0
-54 0 48 -77z"/>
</g>
</svg>
